<svg width="32" height="32" viewBox="0 0 32 32" fill="none" xmlns="http://www.w3.org/2000/svg">
<path d="M16 2.6665C14.526 2.6665 13.3333 3.85921 13.3333 5.33317C13.3333 6.80713 14.526 7.99984 16 7.99984C17.474 7.99984 18.6667 6.80713 18.6667 5.33317C18.6667 3.85921 17.474 2.6665 16 2.6665ZM6.66667 7.99984C5.19271 7.99984 4 9.19255 4 10.6665C4 12.1405 5.19271 13.3332 6.66667 13.3332C8.14063 13.3332 9.33333 12.1405 9.33333 10.6665C9.33333 9.19255 8.14063 7.99984 6.66667 7.99984ZM25.3333 7.99984C23.8594 7.99984 22.6667 9.19255 22.6667 10.6665C22.6667 12.1405 23.8594 13.3332 25.3333 13.3332C26.8073 13.3332 28 12.1405 28 10.6665C28 9.19255 26.8073 7.99984 25.3333 7.99984ZM16 10.6665C14.526 10.6665 13.3333 11.8592 13.3333 13.3332C13.3333 14.8071 14.526 15.9998 16 15.9998C17.474 15.9998 18.6667 14.8071 18.6667 13.3332C18.6667 11.8592 17.474 10.6665 16 10.6665ZM16 17.3332C14.2188 17.3332 12 18.2967 12 20.0675V21.3332H20V20.0675C20 18.2967 17.7813 17.3332 16 17.3332ZM6.66667 18.6665C5.19271 18.6665 4 19.8592 4 21.3332C4 22.8071 5.19271 23.9998 6.66667 23.9998C8.14063 23.9998 9.33333 22.8071 9.33333 21.3332C9.33333 19.8592 8.14063 18.6665 6.66667 18.6665ZM25.3333 18.6665C23.8594 18.6665 22.6667 19.8592 22.6667 21.3332C22.6667 22.8071 23.8594 23.9998 25.3333 23.9998C26.8073 23.9998 28 22.8071 28 21.3332C28 19.8592 26.8073 18.6665 25.3333 18.6665ZM16 23.9998C14.526 23.9998 13.3333 25.1925 13.3333 26.6665C13.3333 28.1405 14.526 29.3332 16 29.3332C17.474 29.3332 18.6667 28.1405 18.6667 26.6665C18.6667 25.1925 17.474 23.9998 16 23.9998Z" fill="black"/>
</svg>
