<svg width="32" height="32" viewBox="0 0 32 32" fill="none" xmlns="http://www.w3.org/2000/svg">
<path d="M13.3333 4V5.60417C7.68221 6.75521 3.31242 11.5 2.72909 17.3333H1.33325V22.6667H6.66659V17.3333H5.427C5.96867 12.9531 9.14575 9.42188 13.3333 8.34896V9.33333H18.6666V8.34896C22.8541 9.42188 26.0312 12.9531 26.578 17.3333H25.3333V22.6667H30.6666V17.3333H29.2708C28.6874 11.5 24.3176 6.75521 18.6666 5.60417V4H13.3333ZM17.3333 9.33333V21.3333C17.3333 22.0677 16.7343 22.6667 15.9999 22.6667C15.2655 22.6667 14.6666 22.0677 14.6666 21.3333V9.33333L9.15617 21.2917L12.5103 28H19.4895L22.8489 21.2917L17.3333 9.33333Z" fill="black"/>
</svg>
