<svg width="75" height="41" viewBox="0 0 75 41" fill="none" xmlns="http://www.w3.org/2000/svg">
<path d="M0.8 27.02V24.94H7.04V27.02C7.04 28.58 7.92 30.02 10.4 30.02C12.8 30.02 13.72 28.78 13.72 26.78V5.9H20.2V27.18C20.2 32.26 16.44 36.02 10.48 36.02C3.96 36.02 0.8 32.14 0.8 27.02ZM28.4459 12.38C26.4859 12.38 24.9259 10.82 24.9259 8.86C24.9259 6.9 26.4859 5.38 28.4459 5.38C30.3659 5.38 31.9259 6.9 31.9259 8.86C31.9259 10.82 30.3659 12.38 28.4459 12.38ZM25.4059 35.5V15.5H31.5659V35.5H25.4059ZM49.9472 15.5V21.3H47.9872C44.4672 21.3 42.3472 22.86 42.3472 26.82V35.5H36.1872V15.54H41.9872L42.3072 18.5C43.1472 16.54 44.9072 15.22 47.5872 15.22C48.3072 15.22 49.1072 15.3 49.9472 15.5ZM51.3963 25.46C51.3963 19.14 56.0362 14.9 62.4363 14.9C68.7963 14.9 73.4363 19.14 73.4363 25.46C73.4363 31.78 68.7963 35.98 62.4363 35.98C56.0362 35.98 51.3963 31.78 51.3963 25.46ZM57.5963 25.42C57.5963 28.46 59.5563 30.46 62.4363 30.46C65.2763 30.46 67.2363 28.46 67.2363 25.42C67.2363 22.42 65.2763 20.42 62.4363 20.42C59.5563 20.42 57.5963 22.42 57.5963 25.42Z" fill="black"/>
</svg>
