<svg width="32" height="32" viewBox="0 0 32 32" fill="none" xmlns="http://www.w3.org/2000/svg">
<path d="M24.0833 0C23.9115 0 23.7708 0.130208 23.75 0.302083L23.5938 1.64583C22.9479 1.875 22.3646 2.21354 21.8594 2.65104L20.6094 2.10937C20.4531 2.04167 20.2708 2.10417 20.1875 2.25L18.9375 4.41667C18.849 4.5625 18.8906 4.75 19.026 4.85417L20.1042 5.65625C20.0365 5.98438 20 6.31771 20 6.66667C20 7.01563 20.0365 7.34896 20.1042 7.67708L19.026 8.47917C18.8906 8.58333 18.849 8.77083 18.9375 8.91667L20.1875 11.0833C20.2708 11.2292 20.4531 11.2917 20.6094 11.2187L21.8594 10.6823C22.3646 11.1198 22.9479 11.4583 23.5938 11.6875L23.75 13.0313C23.7708 13.2031 23.9115 13.3333 24.0833 13.3333H26.5833C26.7552 13.3333 26.8958 13.2031 26.9167 13.0313L27.0729 11.6875C27.7188 11.4583 28.3021 11.1198 28.8073 10.6823L30.0573 11.224C30.2135 11.2917 30.3958 11.2292 30.4792 11.0833L31.7292 8.91667C31.8177 8.77083 31.776 8.57813 31.6406 8.47917L30.5625 7.67708C30.6302 7.34896 30.6667 7.01563 30.6667 6.66667C30.6667 6.31771 30.6302 5.98438 30.5625 5.65625L31.6406 4.85417C31.776 4.75 31.8177 4.5625 31.7292 4.41667L30.4792 2.25C30.3958 2.10417 30.2135 2.04167 30.0573 2.10937L28.8073 2.65104C28.3021 2.21354 27.7188 1.875 27.0729 1.64583L26.9167 0.302083C26.8958 0.130208 26.7552 0 26.5833 0H24.0833ZM25.3333 4C26.8073 4 28 5.19271 28 6.66667C28 8.14063 26.8073 9.33333 25.3333 9.33333C23.8594 9.33333 22.6667 8.14063 22.6667 6.66667C22.6667 5.19271 23.8594 4 25.3333 4ZM5.33333 5.33333C3.86458 5.33333 2.66667 6.53125 2.66667 8V21.3333C2.66667 22.8021 3.86458 24 5.33333 24H0V26.6667H32V24H26.6667C28.1354 24 29.3333 22.8021 29.3333 21.3333V15.0885C28.5052 15.4844 27.6094 15.7604 26.6667 15.8958V21.3333H5.33333V8H16.1042C16.0417 7.5625 16 7.11979 16 6.66667C16 6.21354 16.0417 5.77083 16.1042 5.33333H5.33333Z" fill="black"/>
</svg>
